<?xml version="1.0" encoding="UTF-8" standalone="no"?><!DOCTYPE svg PUBLIC "-//W3C//DTD SVG 1.1//EN" "http://www.w3.org/Graphics/SVG/1.1/DTD/svg11.dtd"><svg width="100%" height="100%" viewBox="0 0 946 1060" version="1.1" xmlns="http://www.w3.org/2000/svg" xmlns:xlink="http://www.w3.org/1999/xlink" xml:space="preserve" xmlns:serif="http://www.serif.com/" style="fill-rule:evenodd;clip-rule:evenodd;stroke-linejoin:round;stroke-miterlimit:2;"><rect id="Artboard1" x="0" y="0" width="945.809" height="1059.19" style="fill:none;"/><g><g><path d="M6.372,344.769l-0,379.398c-0,0 -10.084,71.085 70.167,116.074c80.252,44.988 323.806,185.708 323.806,185.708c64.799,36.067 89.669,28.483 136.402,2.571c46.732,-25.912 328.597,-187.865 328.597,-187.865c51.619,-35.826 71.356,-51.613 71.356,-121.746l0,-357.373c0,-73.896 -5.425,-105.068 -75.826,-145.77c-70.4,-40.701 -310.588,-179.63 -310.588,-179.63c-64.296,-40.66 -102.956,-31.387 -148.231,-5.223c-45.275,26.165 -325.516,187.766 -325.516,187.766c-75.873,41.824 -70.167,86.984 -70.167,126.09Z" style="fill:#65dc4a;"/><path d="M538.941,782.024l273.261,-0c0,-0 52.995,5.939 52.995,-84.08l-0,-329.983c-0,0 5.656,-65.876 -53.086,-97.641c-58.743,-31.766 -261.472,-150.983 -261.472,-150.983c-73.74,-38.944 -88.937,-39.766 -152.574,-2.351c-48.646,28.601 -261.077,150.686 -261.077,150.686c-53.232,31.004 -60.449,42.321 -60.449,123.925l0,302.228l0.001,0.232c0.02,35.189 4.858,86.882 76.68,86.882l268.18,-0c-0,-0 31.531,5.125 36.05,-22.246c0.164,-0.539 33.42,-96.838 -30.958,-195.249c-64.377,-98.411 -160.201,-147.876 -198.842,-159.629c50.067,27.967 156.333,110.905 202.389,219.188c-88.546,-1.17 -243.744,-59.218 -247.285,-267.449c170.699,-6.659 270.822,136.579 309.223,302.887c14.208,-43.346 110.964,-205.053 231.241,-254.029c-97.057,32.042 -173.526,95.563 -232.136,185.415c-0.875,-104.199 104.415,-238.857 268.182,-234.482c4.617,131.834 -92.823,232.917 -173.631,255.73c-45.017,12.709 -65.033,25.027 -78.08,76.864c-13.046,51.836 -35.72,94.085 31.388,94.085Z" style="fill:#fff;"/><path d="M471.685,115.599c-0,-0 182.249,155.212 17.664,362.496c-17.277,-277.546 -17.664,-283.86 -17.664,-283.86l-18.122,283.724c-74.937,-67.769 -112.663,-244.024 18.122,-362.36Z" style="fill:#65dc4a;"/></g></g><g id="Layer1"></g></svg>